Coordinates
version=1
nRows=9
nColumns=24
inDegrees=yes

Units are S.I. units (second, meters, Newtons, ...)
Angles are in degrees.

endheader
time	pelvis_tilt	pelvis_list	pelvis_rotation	pelvis_tx	pelvis_ty	pelvis_tz	hip_flexion_r	hip_adduction_r	hip_rotation_r	knee_angle_r	ankle_angle_r	subtalar_angle_r	mtp_angle_r	hip_flexion_l	hip_adduction_l	hip_rotation_l	knee_angle_l	ankle_angle_l	subtalar_angle_l	mtp_angle_l	lumbar_extension	lumbar_bending	lumbar_rotation
      1.06700000	     -2.56209495	     -0.13337703	     -3.79593755	     -0.15202623	      0.96887416	      0.33466558	    -12.16862127	      2.93494280	     -3.70058682	     -9.10715776	     16.26366651	      4.71671600	      1.56936245	     26.76023060	      0.62518656	     -5.62378193	     -1.84015787	      0.27517813	     -4.26563751	      1.65878352	      1.96340075	      3.87295694	      7.73306807
      1.07116667	     -2.63979569	     -0.06599591	     -3.84125322	     -0.14624341	      0.96819983	      0.33438690	    -12.19767189	      2.78980938	     -3.75626066	     -9.58197084	     16.32574738	      4.85416907	      1.69724356	     26.74442575	      0.74457419	     -5.63022795	     -1.74589819	      0.07788404	     -4.54921998	      1.75847824	      2.07395537	      3.80970006	      7.86421694
      1.07533333	     -2.70310530	      0.01989014	     -3.87043134	     -0.14038697	      0.96760881	      0.33412643	    -12.26686595	      2.63951839	     -3.74609157	    -10.00401550	     16.27411971	      4.81678820	      1.74846567	     26.74276316	      0.87798711	     -5.72272424	     -1.78549408	     -0.10881712	     -4.68142740	      1.79849850	      2.19551642	      3.70106110	      7.88211066
      1.07950000	     -2.80097107	      0.10313147	     -3.89762813	     -0.13457026	      0.96701102	      0.33382045	    -12.24492462	      2.48667095	     -3.76834668	    -10.53100619	     16.26939364	      4.85429162	      1.88302693	     26.78554109	      1.01368038	     -5.69231750	     -1.90157039	     -0.37327085	     -5.06343756	      1.90801065	      2.32382843	      3.62831139	      7.96501870
      1.08366667	     -2.87833374	      0.22194828	     -3.91428974	     -0.12866147	      0.96650205	      0.33352411	    -12.25631965	      2.30328517	     -3.75779476	    -11.03263249	     16.16408140	      4.77537643	      1.95610121	     26.81750029	      1.18137709	     -5.73109403	     -2.10632406	     -0.61468022	     -5.28279789	      1.96890769	      2.45971374	      3.47406839	      7.98460017
      1.08783333	     -2.98722806	      0.31634635	     -3.91302551	     -0.12279400	      0.96598810	      0.33318280	    -12.20140108	      2.15059750	     -3.75565412	    -11.59513636	     16.10327555	      4.72169584	      2.10878698	     26.90606821	      1.33369071	     -5.66789133	     -2.40254303	     -0.95108716	     -5.75067062	      2.09578703	      2.61515093	      3.38243981	      8.03713180
      1.09200000	     -3.08661897	      0.42961800	     -3.90833887	     -0.11687093	      0.96554513	      0.33284928	    -12.14093033	      1.98016128	     -3.74462780	    -12.18693243	     15.96936608	      4.61147758	      2.29164672	     26.98390560	      1.50238166	     -5.60792215	     -2.75025035	     -1.29387277	     -6.17994611	      2.24843439	      2.77602650	      3.24224702	      8.05915611
      1.09616667	     -3.15051143	      0.57391122	     -3.88614147	     -0.11088978	      0.96518822	      0.33247354	    -12.09705691	      1.76961409	     -3.80108792	    -12.81324440	     15.73786729	      4.51295742	      5.10503298	     27.02887101	      1.71060091	     -5.55658514	     -3.14631300	     -1.67674059	     -6.62952514	      4.52477861	      2.89363341	      3.06487536	      8.03717171
      1.10033333	     -3.26650616	      0.69100427	     -3.85938227	     -0.10492152	      0.96483048	      0.33212243	    -11.99273039	      1.61143231	     -3.73173792	    -13.44714820	     15.52480593	      4.27150748	      5.13650294	     27.15543349	      1.88296724	     -5.49575787	     -3.63507943	     -2.05297737	     -7.03456072	      4.52747869	      3.07587196	      2.92390117	      8.06773700
